<svg xmlns="http://www.w3.org/2000/svg" width="14.328" height="13.082" viewBox="0 0 14.328 13.082">
  <path id="Icon_material-add-a-photo" data-name="Icon material-add-a-photo" d="M1.869,3.369V1.5H3.115V3.369H4.984V4.615H3.115V6.484H1.869V4.615H0V3.369ZM3.738,7.107V5.238H5.607V3.369H9.967l1.14,1.246h1.975a1.25,1.25,0,0,1,1.246,1.246v7.476a1.25,1.25,0,0,1-1.246,1.246H3.115a1.25,1.25,0,0,1-1.246-1.246V7.107ZM8.1,12.713A3.115,3.115,0,1,0,4.984,9.6,3.116,3.116,0,0,0,8.1,12.713ZM6.105,9.6A1.993,1.993,0,1,0,8.1,7.605,1.991,1.991,0,0,0,6.105,9.6Z" transform="translate(0 -1.5)" fill="#dc0100"/>
</svg>
