<svg xmlns="http://www.w3.org/2000/svg" width="15.73" height="21" viewBox="0 0 15.73 21">
  <path id="Icon_open-british-pound" data-name="Icon open-british-pound" d="M7.865,0A4.937,4.937,0,0,0,3.933,1.809,6.578,6.578,0,0,0,2.622,5.9a23.477,23.477,0,0,0,.655,4.588H0v2.622H3.2A9.378,9.378,0,0,1,.419,17.461L0,17.8V21H15.73V18.378H2.858A12.729,12.729,0,0,0,5.82,13.135h4.667V10.513H5.978c-.21-1.783-.734-3.251-.734-4.588a4,4,0,0,1,.734-2.464,2.152,2.152,0,0,1,1.888-.813A2.6,2.6,0,0,1,9.831,3.3a2.6,2.6,0,0,1,.655,1.966h2.622a5.4,5.4,0,0,0-1.39-3.854A5.29,5.29,0,0,0,7.865.026Z" fill="#dc0100"/>
</svg>
