<svg xmlns="http://www.w3.org/2000/svg" width="19.61" height="19.61" viewBox="0 0 19.61 19.61">
  <g id="Icon_feather-eye-off" data-name="Icon feather-eye-off" transform="translate(-0.086 -0.086)">
    <path id="Path_1446" data-name="Path 1446" d="M14.422,16.633A7.681,7.681,0,0,1,9.891,18.2C4.551,18.2,1.5,12.1,1.5,12.1A14.073,14.073,0,0,1,5.36,7.571M8.289,6.183A6.957,6.957,0,0,1,9.891,6c5.339,0,8.391,6.1,8.391,6.1a14.111,14.111,0,0,1-1.648,2.433m-5.126-.816a2.288,2.288,0,1,1-3.234-3.234" transform="translate(0 -2.212)" fill="none" stroke="#656565" stroke-linecap="round" stroke-linejoin="round" stroke-width="2"/>
    <path id="Path_1447" data-name="Path 1447" d="M1.5,1.5,18.281,18.281" fill="none" stroke="#656565" stroke-linecap="round" stroke-linejoin="round" stroke-width="2"/>
  </g>
</svg>
