<svg xmlns="http://www.w3.org/2000/svg" width="23.333" height="17.069" viewBox="0 0 23.333 17.069">
  <path id="Icon_simple-gov-dot-uk" data-name="Icon simple-gov-dot-uk" d="M2.332,14.368a1.212,1.212,0,1,0-2.241-.924,1.206,1.206,0,1,0,2.227.924m.834-3.154a1.223,1.223,0,0,0-2.265-.925,1.2,1.2,0,0,0,.644,1.584,1.22,1.22,0,0,0,1.593-.658M4.309,10.15A1.218,1.218,0,1,0,5.243,7.9a1.234,1.234,0,0,0-1.593.667,1.205,1.205,0,0,0,.659,1.581m3.068,1.024A1.216,1.216,0,1,0,8.3,8.921a1.21,1.21,0,1,0-.923,2.237M21,14.343a.938.938,0,1,0-.015-.015m.731-2.5a1.22,1.22,0,0,0-.936-2.252A1.217,1.217,0,0,0,21.7,11.83M19,10.15a1.22,1.22,0,1,0-1.591-.659A1.237,1.237,0,0,0,19,10.148m-3.317.834a1.226,1.226,0,0,0-.936-2.265,1.215,1.215,0,0,0,.952,2.237M9.162,6.5l.09,2.332,1.7-.9a.733.733,0,0,0,.117.1,22.424,22.424,0,0,1-.871,2.5,1.547,1.547,0,1,0,2.863,1.172,1.529,1.529,0,0,0-.233-1.578A11.962,11.962,0,0,1,11.866,8a1.289,1.289,0,0,0,.146-.146l1.842.95.087-2.323L12.028,7.1a.348.348,0,0,0-.044-.073l.745-2.12L10.463,4.83l.687,2.088A.412.412,0,0,0,11,7.051L9.162,6.5Zm11.565,8.855a3.087,3.087,0,0,1-.015,1.807,3.506,3.506,0,0,1-.728-1.55l-.848,2.712a2.5,2.5,0,0,1,1.326-.555c-.792,1.665-1.768,2.086-2.392,1.965a1.2,1.2,0,0,1-.984-1.425c.17-.819,1.023-1.023,1.408-.065.77-1.522-.506-2.02-1.33-1.579,1.276-1.244,1.427-2.358.414-3.729-1.423,1.075-1.449,2.148-.827,3.667-.819-.958-2.119-.453-1.665,1.082.61-.923,1.392-.336,1.262.549-.106.774-1.131,1.374-2.392,1.256-1.812-.16-1.9-1.416-1.928-2.455.438-.072,1.241.351,1.928,1.316l.278-2.88a2.844,2.844,0,0,1-2.178.935,8.9,8.9,0,0,1,1.418-2.032L9.848,14.33a8.531,8.531,0,0,1,1.4,2.06,2.755,2.755,0,0,1-2.163-.934l.248,2.879c.686-.963,1.491-1.373,1.929-1.3-.044,1.024-.146,2.281-1.959,2.441-1.257.1-2.28-.511-2.381-1.286-.118-.876.672-1.461,1.271-.526.468-1.534-.832-2.045-1.652-1.1.644-1.52.629-2.6-.788-3.683-1.024,1.359-.877,2.47.394,3.743-.819-.454-2.1.028-1.344,1.562.394-.964,1.242-.745,1.417.074a1.208,1.208,0,0,1-.993,1.416c-.628.118-1.593-.306-2.383-1.987a2.563,2.563,0,0,1,1.316.571l-.835-2.705a3.424,3.424,0,0,1-.745,1.534A3.1,3.1,0,0,1,2.6,15.284l-1.753.6a15.752,15.752,0,0,1,2.518,5.934,62.039,62.039,0,0,1,8.272-.586,59.471,59.471,0,0,1,8.257.672A15.715,15.715,0,0,1,22.464,16l-1.724-.628-.014-.015Z" transform="translate(0.002 -4.83)" fill="#dc0100"/>
</svg>
