<svg id="Group_403" data-name="Group 403" xmlns="http://www.w3.org/2000/svg" width="260.671" height="186.349" viewBox="0 0 260.671 186.349">
  <circle id="Ellipse_27" data-name="Ellipse 27" cx="14.833" cy="14.833" r="14.833" transform="translate(18.439)" fill="#ffd667"/>
  <path id="Path_121" data-name="Path 121" d="M812.02,426.448a21.851,21.851,0,0,1-21.55-18.25l-.018-.11.07-.083a20.937,20.937,0,0,0,2.9-4.566,14.958,14.958,0,0,1-2.85,2.418l-.35.233-.02-.419c-.018-.362-.026-.721-.026-1.068a22.033,22.033,0,0,1,.836-6.033,64.238,64.238,0,0,0,1.289-28.453,31.18,31.18,0,0,1-.432-5.171,30.826,30.826,0,0,1,60.084-9.7l.07.212-.207.084a16.059,16.059,0,0,1-4.881,1.211,20.941,20.941,0,0,0,5.419.52l.192-.007.047.187a30.953,30.953,0,0,1,.919,7.491v.273a13.761,13.761,0,0,0,4.546,10.261,21.844,21.844,0,0,1-1.019,33.186l-.114.092-.133-.061a18.745,18.745,0,0,1-6.362-4.327,21.3,21.3,0,0,0,3.981,5.77l.212.218-.263.153a21.83,21.83,0,0,1-11,2.972h-.227a21.451,21.451,0,0,0-15.4,6.286,22.011,22.011,0,0,1-15.707,6.68Z" transform="translate(-604.528 -274.653)" fill="#f2f2f2"/>
  <path id="Path_122" data-name="Path 122" d="M835.811,572.894a.394.394,0,0,1-.39-.339,132.01,132.01,0,0,1-.184-27.679c1.361-14.525,5.731-35.445,18.823-52.627a.394.394,0,0,1,.627.478c-12.979,17.033-17.314,37.8-18.665,52.222a131.116,131.116,0,0,0,.18,27.494.395.395,0,0,1-.391.45Z" transform="translate(-636.05 -386.678)" fill="#3f3d56"/>
  <path id="Path_123" data-name="Path 123" d="M860.247,546.815a.394.394,0,0,1-.232-.713,54.349,54.349,0,0,1,12-6.107c6.619-2.423,16.684-4.62,27.046-1.322a.394.394,0,0,1-.239.751c-10.15-3.23-20.032-1.07-26.536,1.311a53.452,53.452,0,0,0-11.8,6A.393.393,0,0,1,860.247,546.815Z" transform="translate(-653.941 -418.523)" fill="#3f3d56"/>
  <path id="Path_124" data-name="Path 124" d="M225.965,638.828c-3.678-.007-9.469.29-12.624,1.955a26.143,26.143,0,0,0-6.542,4.9,31.422,31.422,0,0,0-2.089,2.39,38.247,38.247,0,0,1-.614-19.08,2.145,2.145,0,0,0-3.337-2.232c-5.124,3.737-8.4,10.07-9.2,16.477-1.015,8.163,1.375,16.389,4.7,23.917v0c-.006.034-.015.071-.025.108-.012.055-.028.111-.04.166-.022.1-.046.194-.068.289l.538-.025c.031.015.062.028.092.043H210.23a6.388,6.388,0,0,0,.5-.615c1.491-2.044,2.109-4.814,2.862-7.313a37.263,37.263,0,0,1,2.041-5.281,38.374,38.374,0,0,1,8.334-11.408c.111-.1.224-.209.338-.31.579-.533,1.478-1.246,2.356-1.915a1.152,1.152,0,0,0-.694-2.069Z" transform="translate(-179.85 -481.893)" fill="#f2f2f2"/>
  <path id="Path_125" data-name="Path 125" d="M599.983,226.7a3.587,3.587,0,0,1-2.114,4.565,3.526,3.526,0,0,1-.6.166l-2.036,12.468-4.776-4.41,2.666-11.163a3.6,3.6,0,0,1,3.154-3.95,3.505,3.505,0,0,1,3.708,2.325Z" transform="translate(-462.896 -196.802)" fill="#9e616a"/>
  <path id="Path_126" data-name="Path 126" d="M502.012,272.171s3.707-4.9,17.16-4.764l7.636-2.774,1.745-16,6.108,1.454-.873,19.777L520.7,277.43l-17.16,3.49Z" transform="translate(-400.175 -214.027)" fill="#dc0100"/>
  <path id="Path_127" data-name="Path 127" d="M279.072,581.4l3.524,1.5,7.47-12.878-5.2-2.217Z" transform="translate(-197.907 -402.667)" fill="#9e616a"/>
  <path id="Path_128" data-name="Path 128" d="M379.2,589.984h3.83l1.822-14.775H379.2Z" transform="translate(-268.911 -407.914)" fill="#9e616a"/>
  <path id="Path_129" data-name="Path 129" d="M530.6,753.863h11.78v-.149a4.585,4.585,0,0,0-4.585-4.585h0l-2.152-1.632-4.015,1.633H530.6Z" transform="translate(-420.45 -567.798)" fill="#2f2e41"/>
  <path id="Path_130" data-name="Path 130" d="M423.571,742.358l10.837,4.618.058-.137a4.585,4.585,0,0,0-2.42-6.015h0l-1.339-2.345-4.333-.072-.946-.4Z" transform="translate(-344.548 -561.065)" fill="#2f2e41"/>
  <path id="Path_131" data-name="Path 131" d="M467.894,449.022l5.822,35.449-1.584,5.283,2.079,3.741-3.053,32.856,1.239,2.728-3.463,2.135h-7.046l-.374-29.745-1.74-4.367V494.7l-3.543-18.138-.652,20.747-1.031,4.374.866,3.114-1.131,2.182-9.694,20.816h-7.9l.611-4.707h0c-1.416-.717,2.125-2.811,2.465-4.361L438.6,516.1l1.163-4.944,1.067-9.661-1.125-20.393.529-27.462,9.242-7.068Z" transform="translate(-353.85 -354.397)" fill="#2f2e41"/>
  <circle id="ab6171fa-7d69-4734-b81c-8dff60f9761b" cx="7.984" cy="7.984" r="7.984" transform="translate(91.882 31.972)" fill="#9e616a"/>
  <path id="Path_132" data-name="Path 132" d="M431.5,467.343a3.142,3.142,0,0,0-1.719-4.5l-.019-11.165-4.838,3.2.76,10.112a3.159,3.159,0,0,0,5.816,2.352Z" transform="translate(-345.51 -358.014)" fill="#9e616a"/>
  <path id="f348f81f-b961-4ae4-bc6b-758f6acfb12a" d="M428.647,330.6l-2.162-2.083-1.588,1.146s-1.562,1.875-2.812,7.5,0,36.557,0,36.557l6.874-.937-.937-16.248,2.812-13.748Z" transform="translate(-343.101 -270.672)" fill="#dc0100"/>
  <path id="Path_133" data-name="Path 133" d="M435.026,310.432l7.282-3.479,4.944-4.586,9.016-.067,2.908,3.781,7.678,2.608-1.28,26.476.872,2.036s-.608.549-.886.856.384,2.878.384,2.878l.373,2.8-1.034.739,1.345,1.589.334,2.5s-23.475-5.835-27.911,3.831c-.234.511.343-4.48.343-4.48l.577-3.654-.573-3.28-.872-.872,1.463-1.463-.938-6.944Z" transform="translate(-352.672 -252.083)" fill="#dc0100"/>
  <path id="Path_134" data-name="Path 134" d="M528.964,573.361h-4.322l-2.057-16.669h6.378Z" transform="translate(-370.597 -394.783)" fill="#ffb6b6"/>
  <path id="Path_135" data-name="Path 135" d="M667.317,742.908h-3.1l-.553-2.926-1.417,2.926h-8.22a1.848,1.848,0,0,1-1.05-3.368l6.564-4.533v-2.958l6.9.412Z" transform="translate(-506.668 -556.843)" fill="#2f2e41"/>
  <path id="Path_136" data-name="Path 136" d="M654.916,549.565l-3.717,2.2-10.272-13.288,5.486-3.253Z" transform="translate(-454.52 -379.562)" fill="#ffb6b6"/>
  <path id="Path_137" data-name="Path 137" d="M826.095,711.476l-2.666,1.581-1.968-2.235.274,3.239-7.07,4.193a1.848,1.848,0,0,1-2.621-2.362l3.333-7.247-1.509-2.544,6.149-3.167Z" transform="translate(-619.917 -536.196)" fill="#2f2e41"/>
  <path id="Path_138" data-name="Path 138" d="M532.764,247.55l-2.1,13.388,19.951.262-2.625-12.863Z" transform="translate(-376.326 -175.552)" fill="#ffb6b6"/>
  <path id="Path_139" data-name="Path 139" d="M667.359,415.779l-5.7,13.82-.415,36.957,4.863,35.287h5.381l2.2-34.711,5.423-23.751,5.349,24.841,16.63,24.314h8.172l-15.024-26.794-1.739-29.187s1.084-12.382-4.463-19.688l-1.35-3.9Z" transform="translate(-513.098 -330.563)" fill="#2f2e41"/>
  <path id="Path_140" data-name="Path 140" d="M751.388,373.464a3.938,3.938,0,0,1-2.523-5.486l-8.487-27.671,6.243-1.238,7.762,27.123a3.96,3.96,0,0,1-2.995,7.272Z" transform="translate(-569.214 -278.158)" fill="#ffb6b6"/>
  <path id="Path_141" data-name="Path 141" d="M698.838,333l-14.916-6.955a1.8,1.8,0,0,1-1.7-1.354c-.737-2.919-2.359-6.164-1.5-13.741a11.06,11.06,0,1,1,21.684,4.085c-1.731,6.574-1.546,13.6-1.743,16.306a1.794,1.794,0,0,1-1.437,1.625h0a1.79,1.79,0,0,1-.347.034Z" transform="translate(-526.733 -251.28)" fill="#dc0100"/>
  <path id="Path_142" data-name="Path 142" d="M615.219,237.662a3.865,3.865,0,0,1-.291.533l7.132,16.724,4.384.538.053,6.722-7.853-.2a2.933,2.933,0,0,1-2.762-2.182l-5.286-20a3.848,3.848,0,1,1,4.623-2.14Z" transform="translate(-475.23 -202.417)" fill="#ffb6b6"/>
  <path id="Path_143" data-name="Path 143" d="M657.83,307.1a1.648,1.648,0,0,1,1.314-.4l8.205,1.111a4.582,4.582,0,0,1,.144,9.162l-8.2,1.322a1.65,1.65,0,0,1-1.912-1.608l-.106-8.331A1.648,1.648,0,0,1,657.83,307.1Z" transform="translate(-510.281 -255.189)" fill="#dc0100"/>
  <path id="Path_144" data-name="Path 144" d="M731.692,329.81a1.648,1.648,0,0,1-.839-1.088l-1.864-8.067a4.582,4.582,0,1,1,8.519-3.375l4.138,7.2a1.65,1.65,0,0,1-.827,2.357l-7.755,3.047a1.648,1.648,0,0,1-1.372-.076Z" transform="translate(-560.91 -260.652)" fill="#dc0100"/>
  <circle id="Ellipse_28" data-name="Ellipse 28" cx="8.436" cy="8.436" r="8.436" transform="translate(154.957 36.4) rotate(-28.663)" fill="#ffb6b6"/>
  <path id="Path_145" data-name="Path 145" d="M690.784,236.147l-5.43-.031a4.683,4.683,0,0,1,1.22-3.408,13.9,13.9,0,0,1,2.858-2.363,7.066,7.066,0,0,1,6.5-1.609l4.158.578a9.319,9.319,0,0,1,4.349,1.363c1.671,1.234,1.244,4.082,2.847,5.4,4.842,3.988,2.882,7.471,2.972,11.106L692.7,249.028a4.827,4.827,0,0,1-1.913-.056,1.645,1.645,0,0,1-1.223-1.338c-.05-.716.517-1.3.979-1.852a8.651,8.651,0,0,0,.746-9.783Z" transform="translate(-530.181 -199.783)" fill="#2f2e41"/>
  <path id="Path_146" data-name="Path 146" d="M487.968,292.575l-.1-.226.039,0Z" transform="translate(-390.143 -245.026)" fill="#2f2e41"/>
  <path id="Path_147" data-name="Path 147" d="M459.326,231.586a2.222,2.222,0,0,1,1.392-.6c.516.017,1.04.483.933.988a8.2,8.2,0,0,1,9.874-3.7,4.113,4.113,0,0,1,2.836,2.687,2.419,2.419,0,0,0,.3.992,1.132,1.132,0,0,0,1.205.305l.013,0a.377.377,0,0,1,.456.533l-.363.677a2.91,2.91,0,0,0,1.386-.029.377.377,0,0,1,.4.587,6.57,6.57,0,0,1-5.238,2.693c-1.451-.009-2.916-.509-4.328-.175a3.76,3.76,0,0,0-2.529,5.278,1.226,1.226,0,0,0-1.716.1,2.353,2.353,0,0,0-.514,1.8,8.356,8.356,0,0,0,.858,2.8,8.384,8.384,0,0,1-4.97-14.934Z" transform="translate(-367.666 -199.251)" fill="#2f2e41"/>
  <path id="Path_148" data-name="Path 148" d="M402.243,768.674H152.325a.346.346,0,0,1,0-.693H402.243a.346.346,0,0,1,0,.693Z" transform="translate(-151.946 -582.325)" fill="#ccc" opacity="0.187"/>
  <path id="Path_149" data-name="Path 149" d="M287.077,141.148c-7.189-.972-15.4,2.914-17.259,9.924a6.281,6.281,0,0,0-11.952.613l.823.589a108.272,108.272,0,0,0,46.726-.211C300.415,146.808,294.265,142.119,287.077,141.148Z" transform="translate(-227.037 -137.695)" fill="#f0f0f0"/>
  <path id="Path_150" data-name="Path 150" d="M181.077,209.148c-7.189-.972-15.4,2.914-17.259,9.924a6.281,6.281,0,0,0-11.952.613l.823.589a108.272,108.272,0,0,0,46.726-.211C194.415,214.808,188.265,210.119,181.077,209.148Z" transform="translate(-151.866 -185.918)" fill="#f0f0f0"/>
</svg>
