<svg xmlns="http://www.w3.org/2000/svg" xmlns:xlink="http://www.w3.org/1999/xlink" width="128.115" height="136.85" viewBox="0 0 128.115 136.85">
  <defs>
    <clipPath id="clip-path">
      <path id="Path_1141" data-name="Path 1141" d="M751.529-537A27.176,27.176,0,0,1,778.7-509.824v2.992a5.825,5.825,0,0,1,4.852,5.743v6.794a5.824,5.824,0,0,1-5,5.766,27.194,27.194,0,0,1-15.38,21.706v8.924h1.941a34.941,34.941,0,0,1,34.941,34.94v4.368H703v-4.368a34.94,34.94,0,0,1,34.941-34.94h1.941v-8.924A27.2,27.2,0,0,1,724.5-488.529a5.824,5.824,0,0,1-5-5.766v-6.794a5.825,5.825,0,0,1,4.853-5.743v-2.992A27.176,27.176,0,0,1,751.529-537Z" transform="translate(-703 537)" fill="none"/>
    </clipPath>
    <clipPath id="clip-path-2">
      <path id="Path_1140" data-name="Path 1140" d="M671-437.12H799.115V-573H671Z" transform="translate(-671 573)" fill="none"/>
    </clipPath>
    <clipPath id="clip-path-3">
      <rect id="Rectangle_508" data-name="Rectangle 508" width="128.254" height="123.321" fill="none"/>
    </clipPath>
    <clipPath id="clip-path-4">
      <path id="Path_1136" data-name="Path 1136" d="M703-418.591h97.057V-537H703Z" transform="translate(-703 537)" fill="none"/>
    </clipPath>
    <clipPath id="clip-path-5">
      <path id="Path_1139" data-name="Path 1139" d="M747-443a27.176,27.176,0,0,0,27.176,27.176A27.176,27.176,0,0,0,801.352-443h0v3.882a27.176,27.176,0,0,1-27.176,27.176A27.176,27.176,0,0,1,747-439.118Z" transform="translate(-747 443)" fill="none"/>
    </clipPath>
    <clipPath id="clip-path-7">
      <path id="Path_1149" data-name="Path 1149" d="M735.514-372.2c0,5.762,7.278,10.434,16.257,10.434s16.257-4.671,16.257-10.434a6.847,6.847,0,0,0-.182-1.568,34.942,34.942,0,0,1,32.211,34.835v4.342H703v-4.342a34.943,34.943,0,0,1,32.706-34.87A6.8,6.8,0,0,0,735.514-372.2Z" transform="translate(-703 373.803)" fill="none"/>
    </clipPath>
    <clipPath id="clip-path-9">
      <rect id="Rectangle_509" data-name="Rectangle 509" width="128.254" height="55.905" fill="none"/>
    </clipPath>
    <clipPath id="clip-path-10">
      <path id="Path_1144" data-name="Path 1144" d="M703-334.692h97.057V-374H703Z" transform="translate(-703 374)" fill="none"/>
    </clipPath>
    <clipPath id="clip-path-11">
      <path id="Path_1147" data-name="Path 1147" d="M798.21-334.3c-.144,1.348-2.763,2.074-3.723,1.188-.442-.409-.45-1.249-.548-1.8a23.573,23.573,0,0,1-.364-3.117c-.029-.643-.2-1.157.506-1.253a1.982,1.982,0,0,1,1.221.453c1.187.764,3.072,2.979,2.908,4.526m-6.018-2.84c.138,1.371.641,3.755-.454,4.9-.979,1.026-2.989.009-3.292-1.2-.375-1.5,1.1-3.291,2.011-4.3.279-.311.895-1.171,1.376-.883.186.111.336,1.267.358,1.484m.7,5.353c.314-.739,3.355,1.465,1.918,2.513-.234.171-2.019.712-2.36.457-.721-.536.209-2.409.442-2.971m9.222-3.678c-.215-7.51-9.832-9.628-14.971-5.349a7.974,7.974,0,0,0-3.139,6.2c-.043,2.17.3,4.217,1.957,5.709a5.091,5.091,0,0,1,1.575,1.927c.4.925.582,2.1,1.331,2.83a1.471,1.471,0,0,0,1.585.466c1.049-.475.714-1.93,1.031-2.741.988,2.411,3.5,3.18,3.955.121.5.883,1.808,2.038,2.766,1.072a2.654,2.654,0,0,0,.52-1.566c.119-.928-.088-1.292.658-1.929a8.416,8.416,0,0,0,2.732-6.741" transform="translate(-784 343)" fill="none"/>
    </clipPath>
    <clipPath id="clip-path-13">
      <path id="Path_1152" data-name="Path 1152" d="M789-424a6.794,6.794,0,0,0,6.794,6.794h0A6.794,6.794,0,0,0,802.588-424" transform="translate(-789 424)" fill="none"/>
    </clipPath>
    <clipPath id="clip-path-15">
      <path id="Path_1155" data-name="Path 1155" d="M791-443c0,2.144,2.607,3.882,5.824,3.882h0c3.216,0,5.823-1.738,5.823-3.882" transform="translate(-791 443)" fill="none"/>
    </clipPath>
    <clipPath id="clip-path-17">
      <path id="Path_1158" data-name="Path 1158" d="M773.912-461.177a2.912,2.912,0,0,0,2.912-2.912A2.912,2.912,0,0,0,773.912-467,2.912,2.912,0,0,0,771-464.088,2.912,2.912,0,0,0,773.912-461.177Z" transform="translate(-771 467)" fill="none"/>
    </clipPath>
    <clipPath id="clip-path-19">
      <path id="Path_1161" data-name="Path 1161" d="M817.548-461.761a5.8,5.8,0,0,1,5.028-3.488,5.8,5.8,0,0,1,5.453,2.736c.3.525-.044,1-.45.693a7.3,7.3,0,0,0-4.857-1.325,7.339,7.339,0,0,0-4.519,1.886C817.8-460.877,817.325-461.2,817.548-461.761Z" transform="translate(-817.491 465.265)" fill="none"/>
    </clipPath>
    <clipPath id="clip-path-21">
      <path id="Path_1164" data-name="Path 1164" d="M760.762-479.545c1.9-2.673,7.108-4.172,11.595-3.07a.971.971,0,0,0,1.174-.711.97.97,0,0,0-.711-1.174c-5.21-1.28-11.242.456-13.64,3.831a.971.971,0,0,0,.229,1.353A.971.971,0,0,0,760.762-479.545Z" transform="translate(-759 484.922)" fill="none"/>
    </clipPath>
    <clipPath id="clip-path-23">
      <path id="Path_1167" data-name="Path 1167" d="M829.8-479.545c-1.9-2.673-7.108-4.172-11.595-3.07a.971.971,0,0,1-1.174-.711.97.97,0,0,1,.711-1.174c5.211-1.28,11.242.456,13.641,3.831a.971.971,0,0,1-.229,1.353A.97.97,0,0,1,829.8-479.545Z" transform="translate(-817 484.922)" fill="none"/>
    </clipPath>
    <clipPath id="clip-path-25">
      <path id="Path_1133" data-name="Path 1133" d="M978-502.12h128.115V-638H978Z" transform="translate(-978 638)" fill="none"/>
    </clipPath>
    <clipPath id="clip-path-26">
      <rect id="Rectangle_507" data-name="Rectangle 507" width="82.214" height="125.787" fill="none"/>
    </clipPath>
    <clipPath id="clip-path-27">
      <path id="Path_1132" data-name="Path 1132" d="M1068.162-617a33,33,0,0,1,33,33v14.924q.636,7.135,1.192,10c.669,3.448,2.763,2.311,2.763,7.214s-2.1,6.552-2.109,10.912,7.472,7.828,7.472,13.364-3.433,31.657-37.669,31.657a28.778,28.778,0,0,1-18.689-6.242q.5,4.724.939,10.864h-22.808c.452-11.536-3.535-17.987-3.535-30.842s6.618-31.552,6.446-36.127q.014-.428.031-1.015-.032-.7-.031-1.411V-584a33.2,33.2,0,0,1,.482-5.652c0-.057,0-.114,0-.171l.021.038A33.009,33.009,0,0,1,1068.162-617Zm.242,15.529h-.486a26.447,26.447,0,0,0-26.447,26.448h0v11.161a26.447,26.447,0,0,0,26.447,26.448h.486a26.448,26.448,0,0,0,26.448-26.448h0v-11.161a26.448,26.448,0,0,0-26.448-26.448Z" transform="translate(-1028.716 617)" fill="none"/>
    </clipPath>
    <clipPath id="clip-path-28">
      <path id="Path_1131" data-name="Path 1131" d="M978-491.311h128.115V-617H978Z" transform="translate(-978 617)" fill="none"/>
    </clipPath>
    <clipPath id="clip-path-29">
      <rect id="Rectangle_506" data-name="Rectangle 506" width="128.254" height="138.119" fill="none"/>
    </clipPath>
    <clipPath id="clip-path-30">
      <path id="Path_1124" data-name="Path 1124" d="M1028-491.311h82.5V-617H1028Z" transform="translate(-1028 617)" fill="none"/>
    </clipPath>
    <clipPath id="clip-path-31">
      <path id="Path_1127" data-name="Path 1127" d="M1078.088-606a29.967,29.967,0,0,1,30.088,29.845,29.81,29.81,0,0,1-.521,5.558,29.6,29.6,0,0,0-29.566-28.124,29.6,29.6,0,0,0-29.566,28.124,29.731,29.731,0,0,1-.522-5.558A29.967,29.967,0,0,1,1078.088-606Z" transform="translate(-1048 606)" fill="none"/>
    </clipPath>
    <clipPath id="clip-path-33">
      <path id="Path_1130" data-name="Path 1130" d="M1113.04-482.448c.069.155.133.314.191.475,2.2,6.036-3.919,13.8-13.66,17.348s-19.42,1.527-21.617-4.508q-.089-.242-.158-.487c3.976,2.743,11.834,2.874,19.93-.073,8.08-2.941,14.011-8.08,15.307-12.73Zm-5.634-7.446c.032.122.06.246.082.372.831,4.7-6.423,9.917-16.2,11.64s-18.374-.692-19.2-5.4c-.022-.125-.039-.251-.05-.378,3.149,2.419,10.434,3.257,18.557,1.825s14.659-4.7,16.8-8.044Zm.946-38.165V-516.9A26.448,26.448,0,0,1,1081.9-490.45h-1.457A26.448,26.448,0,0,1,1054-516.9v-11.161a26.651,26.651,0,0,1,.519-5.242q-.033.676-.033,1.359h0v11.161a26.448,26.448,0,0,0,26.448,26.448h.485a26.448,26.448,0,0,0,26.448-26.448h0v-11.161q0-.684-.035-1.359A26.517,26.517,0,0,1,1108.352-528.059Z" transform="translate(-1054 533.301)" fill="none"/>
    </clipPath>
  </defs>
  <g id="Group_2025" data-name="Group 2025" transform="translate(-0.001 0)">
    <g id="Group_1447" data-name="Group 1447" transform="translate(0.001 0)">
      <g id="Group_1427" data-name="Group 1427" transform="translate(15.529 18.44)" clip-path="url(#clip-path)">
        <g id="Group_1426" data-name="Group 1426" transform="translate(-15.529 -17.47)" clip-path="url(#clip-path-2)">
          <g id="Group_1425" data-name="Group 1425" transform="translate(-0.235 14.893)" style="mix-blend-mode: normal;isolation: isolate">
            <g id="Group_1424" data-name="Group 1424" clip-path="url(#clip-path-3)">
              <g id="Group_1421" data-name="Group 1421" transform="translate(15.764 2.577)" clip-path="url(#clip-path-4)">
                <path id="Path_1134" data-name="Path 1134" d="M698-542H799.91v123.262H698Z" transform="translate(-700.426 539.574)" fill="#cfc6ac"/>
                <path id="Path_1135" data-name="Path 1135" d="M666-542H798.968v123.262H666Z" transform="translate(-683.956 539.574)" fill="#ffdab4"/>
              </g>
              <g id="Group_1423" data-name="Group 1423" transform="translate(37.117 48.194)" clip-path="url(#clip-path-5)">
                <g id="Group_1422" data-name="Group 1422" transform="translate(-21.352 -45.617)" clip-path="url(#clip-path-4)">
                  <path id="Path_1137" data-name="Path 1137" d="M742-448h59.2v35.911H742Z" transform="translate(-723.074 491.19)" fill="rgba(0,0,0,0.1)"/>
                </g>
              </g>
            </g>
          </g>
        </g>
      </g>
      <g id="Group_1434" data-name="Group 1434" transform="translate(15.529 97.637)" clip-path="url(#clip-path-7)">
        <g id="Group_1433" data-name="Group 1433" transform="translate(-15.529 -96.667)" clip-path="url(#clip-path-2)">
          <g id="Group_1432" data-name="Group 1432" transform="translate(-0.235 82.309)" style="mix-blend-mode: normal;isolation: isolate">
            <g id="Group_1431" data-name="Group 1431" clip-path="url(#clip-path-9)">
              <g id="Group_1428" data-name="Group 1428" transform="translate(15.764 14.262)" clip-path="url(#clip-path-10)">
                <path id="Path_1142" data-name="Path 1142" d="M698-378.8H799.91v44.066H698Z" transform="translate(-700.426 376.472)" fill="#e5e5e5"/>
                <path id="Path_1143" data-name="Path 1143" d="M666-408H798.968v58.234H666Z" transform="translate(-683.956 391.5)" fill="#ff5c5c"/>
              </g>
              <g id="Group_1430" data-name="Group 1430" transform="translate(55.072 29.306)" clip-path="url(#clip-path-11)">
                <g id="Group_1429" data-name="Group 1429" transform="translate(-39.308 -15.044)" clip-path="url(#clip-path-10)">
                  <path id="Path_1145" data-name="Path 1145" d="M779-348h22.97v24.264H779Z" transform="translate(-742.118 360.617)" fill="#fff"/>
                </g>
              </g>
            </g>
          </g>
        </g>
      </g>
      <g id="Group_1436" data-name="Group 1436" transform="translate(57.263 73.277)" clip-path="url(#clip-path-13)">
        <g id="Group_1435" data-name="Group 1435" transform="translate(-57.263 -72.307)" clip-path="url(#clip-path-2)">
          <path id="Path_1150" data-name="Path 1150" d="M784-429h18.441v11.647H784Z" transform="translate(-729.163 498.881)" fill="rgba(0,0,0,0.7)"/>
        </g>
      </g>
      <g id="Group_1438" data-name="Group 1438" transform="translate(58.234 64.057)" clip-path="url(#clip-path-15)">
        <g id="Group_1437" data-name="Group 1437" transform="translate(-58.234 -63.087)" clip-path="url(#clip-path-2)">
          <path id="Path_1153" data-name="Path 1153" d="M786-448h16.5v8.735H786Z" transform="translate(-730.192 508.661)" fill="rgba(0,0,0,0.16)"/>
        </g>
      </g>
      <g id="Group_1440" data-name="Group 1440" transform="translate(48.528 52.411)" clip-path="url(#clip-path-17)">
        <g id="Group_1439" data-name="Group 1439" transform="translate(-48.528 -51.44)" clip-path="url(#clip-path-2)">
          <path id="Path_1156" data-name="Path 1156" d="M766-472h10.677v10.676H766Z" transform="translate(-719.898 521.014)" fill="rgba(0,0,0,0.6)"/>
        </g>
      </g>
      <g id="Group_1442" data-name="Group 1442" transform="translate(71.089 53.253)" clip-path="url(#clip-path-19)">
        <g id="Group_1441" data-name="Group 1441" transform="translate(-71.09 -52.282)" clip-path="url(#clip-path-2)">
          <path id="Path_1159" data-name="Path 1159" d="M811.663-470.253l15.491-1.083.609,8.714-15.492,1.083Z" transform="translate(-743.402 520.672)" fill="rgba(0,0,0,0.6)"/>
        </g>
      </g>
      <g id="Group_1444" data-name="Group 1444" transform="translate(42.705 43.713)" clip-path="url(#clip-path-21)">
        <g id="Group_1443" data-name="Group 1443" transform="translate(-42.705 -42.743)" clip-path="url(#clip-path-2)">
          <path id="Path_1162" data-name="Path 1162" d="M754-489.922h19.411v10.638H754Z" transform="translate(-713.721 530.238)" fill="rgba(0,0,0,0.6)"/>
        </g>
      </g>
      <g id="Group_1446" data-name="Group 1446" transform="translate(70.851 43.713)" clip-path="url(#clip-path-23)">
        <g id="Group_1445" data-name="Group 1445" transform="translate(-70.851 -42.743)" clip-path="url(#clip-path-2)">
          <path id="Path_1165" data-name="Path 1165" d="M812-479.283h19.412v-10.638H812Z" transform="translate(-743.575 530.238)" fill="rgba(0,0,0,0.6)"/>
        </g>
      </g>
      <g id="Group_1420" data-name="Group 1420" clip-path="url(#clip-path-25)">
        <g id="Group_1419" data-name="Group 1419" transform="translate(24.254 10.263)" style="mix-blend-mode: normal;isolation: isolate">
          <g id="Group_1418" data-name="Group 1418" clip-path="url(#clip-path-26)">
            <g id="Group_1417" data-name="Group 1417" transform="translate(0.358 -0.072)" clip-path="url(#clip-path-27)">
              <g id="Group_1416" data-name="Group 1416" transform="translate(-24.612)" clip-path="url(#clip-path-28)">
                <g id="Group_1415" data-name="Group 1415" transform="translate(-0.41 -9.794)" style="mix-blend-mode: normal;isolation: isolate">
                  <g id="Group_1414" data-name="Group 1414" clip-path="url(#clip-path-29)">
                    <g id="Group_1409" data-name="Group 1409" transform="translate(24.674 9.794)" clip-path="url(#clip-path-30)">
                      <path id="Path_1122" data-name="Path 1122" d="M1023.716-622h86.616v130.541h-86.616Z" transform="translate(-1025.795 619.574)" fill="#3a6bac"/>
                      <path id="Path_1123" data-name="Path 1123" d="M973-643h132.968v140.733H973Z" transform="translate(-999.691 630.382)" fill="#25557b"/>
                    </g>
                    <g id="Group_1411" data-name="Group 1411" transform="translate(34.38 15.132)" clip-path="url(#clip-path-31)">
                      <g id="Group_1410" data-name="Group 1410" transform="translate(-9.706 -5.338)" clip-path="url(#clip-path-30)">
                        <path id="Path_1125" data-name="Path 1125" d="M1043-611h65.027v40.256H1043Z" transform="translate(-1035.721 613.912)" fill="rgba(255,255,255,0.5)"/>
                      </g>
                    </g>
                    <g id="Group_1413" data-name="Group 1413" transform="translate(37.292 50.411)" clip-path="url(#clip-path-33)">
                      <g id="Group_1412" data-name="Group 1412" transform="translate(-12.617 -40.618)" clip-path="url(#clip-path-30)">
                        <path id="Path_1128" data-name="Path 1128" d="M1049-538.3h64.532v75.277H1049Z" transform="translate(-1038.809 576.492)" fill="rgba(0,0,0,0.15)"/>
                      </g>
                    </g>
                  </g>
                </g>
              </g>
            </g>
          </g>
        </g>
      </g>
    </g>
  </g>
</svg>
