<svg xmlns="http://www.w3.org/2000/svg" width="18.807" height="10.258" viewBox="0 0 18.807 10.258">
  <path id="Icon_material-timeline" data-name="Icon material-timeline" d="M20.307,10.71a1.715,1.715,0,0,1-1.71,1.71,1.453,1.453,0,0,1-.436-.06l-3.043,3.035a1.51,1.51,0,0,1,.06.445,1.71,1.71,0,0,1-3.419,0,1.51,1.51,0,0,1,.06-.445l-2.18-2.18a1.681,1.681,0,0,1-.889,0l-3.89,3.9a1.453,1.453,0,0,1,.06.436,1.71,1.71,0,1,1-1.71-1.71,1.453,1.453,0,0,1,.436.06l3.9-3.89a1.51,1.51,0,0,1-.06-.445,1.71,1.71,0,0,1,3.419,0,1.51,1.51,0,0,1-.06.445l2.18,2.18a1.681,1.681,0,0,1,.889,0l3.035-3.043a1.453,1.453,0,0,1-.06-.436,1.71,1.71,0,0,1,3.419,0Z" transform="translate(-1.5 -9)" fill="#656565"/>
</svg>
