<svg xmlns="http://www.w3.org/2000/svg" width="22" height="27" viewBox="0 0 22 27">
  <g id="Group_4" data-name="Group 4" transform="translate(-91 -667)">
    <g id="Icon_feather-book" data-name="Icon feather-book" transform="translate(92 668)">
      <path id="Path_19" data-name="Path 19" d="M6,28.625A3.125,3.125,0,0,1,9.125,25.5H26" transform="translate(-6 -6.75)" fill="none" stroke="#fff" stroke-linecap="round" stroke-linejoin="round" stroke-width="2"/>
      <path id="Path_20" data-name="Path 20" d="M9.125,3H26V28H9.125A3.125,3.125,0,0,1,6,24.875V6.125A3.125,3.125,0,0,1,9.125,3Z" transform="translate(-6 -3)" fill="none" stroke="#fff" stroke-linecap="round" stroke-linejoin="round" stroke-width="2"/>
    </g>
    <path id="Icon_feather-phone" data-name="Icon feather-phone" d="M13.178,10.509v1.51a1.007,1.007,0,0,1-1.1,1.007,9.961,9.961,0,0,1-4.344-1.545,9.815,9.815,0,0,1-3.02-3.02A9.961,9.961,0,0,1,3.172,4.1a1.007,1.007,0,0,1,1-1.1h1.51a1.007,1.007,0,0,1,1.007.866A6.462,6.462,0,0,0,7.042,5.28a1.007,1.007,0,0,1-.226,1.062l-.639.639A8.053,8.053,0,0,0,9.2,10l.639-.639A1.007,1.007,0,0,1,10.9,9.135a6.463,6.463,0,0,0,1.414.352A1.007,1.007,0,0,1,13.178,10.509Z" transform="translate(93.827 670.081)" fill="none" stroke="#fff" stroke-linecap="round" stroke-linejoin="round" stroke-width="1"/>
  </g>
</svg>
