<svg xmlns="http://www.w3.org/2000/svg" width="32.085" height="17.5" viewBox="0 0 32.085 17.5">
  <path id="Icon_material-timeline" data-name="Icon material-timeline" d="M33.585,11.917a2.925,2.925,0,0,1-2.917,2.917,2.479,2.479,0,0,1-.744-.1l-5.192,5.177a2.576,2.576,0,0,1,.1.758,2.917,2.917,0,0,1-5.834,0,2.576,2.576,0,0,1,.1-.758L15.384,16.19a2.868,2.868,0,0,1-1.517,0L7.232,22.84a2.479,2.479,0,0,1,.1.744,2.917,2.917,0,1,1-2.917-2.917,2.479,2.479,0,0,1,.744.1l6.65-6.636a2.576,2.576,0,0,1-.1-.758,2.917,2.917,0,0,1,5.834,0,2.576,2.576,0,0,1-.1.758l3.719,3.719a2.868,2.868,0,0,1,1.517,0l5.177-5.192a2.479,2.479,0,0,1-.1-.744,2.917,2.917,0,0,1,5.834,0Z" transform="translate(-1.5 -9)" fill="#fff"/>
</svg>
